<svg xmlns="http://www.w3.org/2000/svg" viewBox="0 0 720 300"><path d="M768 -24C1132 -24 1396 199 1441 541H1079C1047 383 934 290 774 290C544 290 414 461 414 744C414 1028 545 1200 774 1200C934 1200 1048 1106 1078 947H1441C1397 1289 1132 1514 768 1514C359 1514 52 1231 52 744C52 261 359 -24 768 -24Z" fill="#F4F7FA" transform="translate(62.00,205) scale(0.073242,-0.073242)"/><path d="M96 0H456V605H1023V0H1383V1490H1023V911H456V1490H96Z" fill="#F4F7FA" transform="translate(165.13,205) scale(0.073242,-0.073242)"/><path d="M456 1490H96V0H456Z" fill="#F4F7FA" transform="translate(267.46,205) scale(0.073242,-0.073242)"/><path d="M722 -24C1101 -24 1349 195 1349 524V1490H998V553C998 395 888 282 722 282C557 282 445 396 445 553V1490H94V524C94 195 341 -24 722 -24Z" fill="#F4F7FA" transform="translate(301.89,205) scale(0.073242,-0.073242)"/><path d="M649 0C1107 0 1393 290 1393 745C1393 1200 1103 1490 649 1490H96V0ZM456 300V1190H627C901 1190 1031 1039 1031 745C1031 452 904 300 631 300Z" fill="#F4F7FA" transform="translate(401.57,205) scale(0.073242,-0.073242)"/><path d="M456 1490H96V0H456Z" fill="#F4F7FA" transform="translate(501.41,205) scale(0.073242,-0.073242)"/><path d="M261 -19C365 -19 449 65 449 170C449 274 365 358 261 358C157 358 73 274 73 170C73 65 157 -19 261 -19Z" fill="#D8FF46" transform="translate(538.84,205) scale(0.073242,-0.073242)"/></svg>